# xmcd CD database file
#
# Track frame offsets:
#	150
#	36255
#	71062
#	103501
#	142236
#	169660
#	199271
#	226194
#	252626
#	289489
#
# Disc length: 4178 seconds
#
# Revision: 1
# Processed by: cddbd v1.5.2PL0 Copyright (c) Steve Scherf et al.
# Submitted via: CDex 1.70beta2
#
DISCID=9e10500a
DTITLE=Rovatti, Ada - Green Factor
DYEAR=2008
DGENRE=Jazz
TTITLE0=The Kerry Dance
TTITLE1=The Green Factor
TTITLE2=Corko Mio
TTITLE3=I Lost my Wisdom
TTITLE4=Oh Danny Boy
TTITLE5=The Untold Story
TTITLE6=Somewhere over the Rainbow
TTITLE7=Wild Colonial Boy
TTITLE8=Peter Pan
TTITLE9=Your Highness
EXTD=YEAR: 2008
EXTT0=
EXTT1=
EXTT2=
EXTT3=
EXTT4=
EXTT5=
EXTT6=
EXTT7=
EXTT8=
EXTT9=
PLAYORDER=
